<!-- Generated by IcoMoon.io -->
<svg version="1.1" xmlns="http://www.w3.org/2000/svg" width="40" height="40" viewBox="0 0 40 40">
<title>cog</title>
<path d="M33.566 20c0-2.098 1.292-3.75 3.234-4.886-0.352-1.168-0.814-2.29-1.384-3.344-2.178 0.57-3.94-0.282-5.422-1.766-1.482-1.48-1.936-3.242-1.366-5.422-1.054-0.57-2.176-1.036-3.344-1.382-1.136 1.94-3.19 3.23-5.284 3.23-2.096 0-4.148-1.29-5.286-3.23-1.17 0.346-2.288 0.812-3.342 1.382 0.57 2.18 0.118 3.942-1.368 5.422-1.48 1.484-3.242 2.336-5.422 1.766-0.57 1.054-1.034 2.176-1.382 3.344 1.94 1.136 3.23 2.788 3.23 4.886 0 2.094-1.29 4.148-3.23 5.286 0.35 1.168 0.812 2.288 1.382 3.344 2.18-0.57 3.942-0.118 5.422 1.364 1.482 1.484 1.938 3.246 1.368 5.422 1.054 0.57 2.174 1.036 3.344 1.386 1.136-1.946 3.19-3.234 5.286-3.234 2.094 0 4.148 1.29 5.286 3.234 1.168-0.352 2.288-0.816 3.344-1.386-0.57-2.176-0.118-3.938 1.366-5.422 1.482-1.48 3.244-2.332 5.422-1.766 0.57-1.054 1.034-2.172 1.384-3.344-1.946-1.138-3.238-2.79-3.238-4.884zM20 27.304c-4.036 0-7.306-3.27-7.306-7.304 0-4.036 3.272-7.308 7.306-7.308 4.036 0 7.304 3.274 7.304 7.308 0 4.036-3.268 7.304-7.304 7.304z"></path>
</svg>
