<!-- Generated by IcoMoon.io -->
<svg version="1.1" xmlns="http://www.w3.org/2000/svg" width="40" height="40" viewBox="0 0 40 40">
<title>database</title>
<path d="M33.452 25.282c-1.686 2.726-7.070 4.722-13.452 4.722s-11.766-1.996-13.454-4.722c-0.356-0.58-0.546-0.27-0.546 0.014 0 0.288 0 4.004 0 4.004 0 3.88 6.268 7.9 14 7.9s14-4.020 14-7.898c0 0 0-3.716 0-4.004 0-0.286-0.192-0.596-0.548-0.016zM33.474 15.050c-1.66 2.41-7.064 4.18-13.474 4.18s-11.816-1.77-13.476-4.18c-0.342-0.496-0.524-0.226-0.524-0.004 0 0.226 0 4.714 0 4.714 0 3.524 6.268 6.378 14 6.378s14-2.856 14-6.378c0 0 0-4.488 0-4.714 0-0.222-0.184-0.492-0.526 0.004zM20 2c-7.732 0-14 2.36-14 5.266v2.52c0 3.082 6.268 5.582 14 5.582s14-2.5 14-5.582v-2.52c0-2.906-6.268-5.266-14-5.266z"></path>
</svg>
