<!-- Generated by IcoMoon.io -->
<svg version="1.1" xmlns="http://www.w3.org/2000/svg" width="40" height="40" viewBox="0 0 40 40">
<title>drive</title>
<path d="M38.118 21.796l-6.342-15.854c-0.468-1.174-1.604-1.942-2.868-1.942h-17.816c-1.264 0-2.4 0.768-2.868 1.942l-6.342 15.854c-0.576 1.442-0.746 3.014-0.492 4.544l1.18 7.078c0.248 1.49 1.536 2.582 3.046 2.582h28.766c1.51 0 2.798-1.092 3.046-2.582l1.18-7.078c0.258-1.53 0.088-3.102-0.49-4.544zM33.918 30.49c-0.144 0.872-0.898 1.51-1.782 1.51h-24.272c-0.884 0-1.638-0.638-1.782-1.51l-0.73-4.386c-0.186-1.102 0.664-2.104 1.782-2.104h25.734c1.116 0 1.966 1.002 1.782 2.104l-0.732 4.386z"></path>
</svg>
