<!-- Generated by IcoMoon.io -->
<svg version="1.1" xmlns="http://www.w3.org/2000/svg" width="40" height="40" viewBox="0 0 40 40">
<title>evernote1</title>
<path d="M34.678 8.614c0-2.3-3.464-2.554-3.464-2.554l-8.138-0.512c0 0-0.174-2.214-1.818-2.984-1.644-0.766-3.452-0.532-4.752-0.52-1.3 0.014-1.606 1.67-1.606 3.234 0 1.562 0.028 3.368 0.028 4.5 0 2.036-0.894 2.898-3.132 2.898h-4.614c-1.29-0.082-2.294 0.128-2.294 1.172 0 1.046 1.518 9.946 3.602 12 1.21 1.192 8.61 2.028 10.168 2.028s1.038-4.602 1.472-4.602c0.434 0 0.908 2.598 3.364 3.206 2.452 0.614 5.728 0.5 5.902 2.246 0.226 2.304 0.434 5.284-1.082 5.496l-3.432 0.136c-2.352-0.168-1.72-2.738-0.682-2.738s1.558-0.038 1.558-0.038l0.13-2.812c0 0-5.386-0.636-5.614 2.996-0.21 3.32 0.36 4.886 0.778 5.226 0.418 0.344 1.142 1.008 7.738 1.008 9.294 0 5.888-27.086 5.888-29.386zM30.88 20.64c-0.364 0.392-1.684-0.64-2.944-0.64-1.262 0-2.622 0.668-2.942 0.226-0.32-0.438 0.292-3.98 2.668-3.98s3.586 4.008 3.218 4.394z"></path>
<path d="M11.608 8.332c0-0.458 0.116-5.968 0.116-5.968l-7.010 6.88c0 0 4.844 0 5.796 0 0.952-0.002 1.098-0.458 1.098-0.912z"></path>
</svg>
