<!-- Generated by IcoMoon.io -->
<svg version="1.1" xmlns="http://www.w3.org/2000/svg" width="40" height="40" viewBox="0 0 40 40">
<title>game-controller</title>
<path d="M38.888 18.722c-1.764-9.852-5.708-12.758-7.806-12.758-3.274 0-4.114 2.434-11.082 2.516-6.968-0.082-7.808-2.516-11.082-2.516-2.098 0-6.044 2.906-7.808 12.758-1.006 5.624-2.098 14.020 0.504 15.028 3.238 1.254 4.336-1.882 7.892-4.532 3.61-2.686 5.342-3.318 10.494-3.318s6.884 0.632 10.494 3.318c3.556 2.648 4.654 5.786 7.892 4.532 2.602-1.008 1.51-9.402 0.502-15.028zM12 20c-2.21 0-4-1.792-4-4 0-2.21 1.79-4 4-4s4 1.79 4 4c0 2.208-1.792 4-4 4zM26 20c-1.106 0-2-0.894-2-2s0.894-2 2-2c1.106 0 2 0.894 2 2s-0.894 2-2 2zM30 16c-1.106 0-2-0.894-2-2s0.894-2 2-2c1.106 0 2 0.894 2 2s-0.894 2-2 2z"></path>
</svg>
