<!-- Generated by IcoMoon.io -->
<svg version="1.1" xmlns="http://www.w3.org/2000/svg" width="40" height="40" viewBox="0 0 40 40">
<title>github1</title>
<path d="M26.36 22.618c-1.436 0-2.6 1.614-2.6 3.598 0 1.988 1.164 3.602 2.6 3.602s2.6-1.614 2.6-3.602c-0.002-1.984-1.164-3.598-2.6-3.598zM35.412 13.252c0.298-0.73 0.31-4.878-1.27-8.852 0 0-3.622 0.398-9.102 4.16-1.15-0.32-3.096-0.476-5.038-0.476-1.946 0-3.89 0.156-5.040 0.476-5.482-3.762-9.104-4.16-9.104-4.16-1.578 3.974-1.562 8.122-1.268 8.852-1.856 2.016-2.99 4.438-2.99 7.742 0 14.372 11.926 14.602 14.934 14.602 0.684 0 2.036 0.004 3.468 0.004 1.43 0 2.784-0.004 3.464-0.004 3.012 0 14.934-0.23 14.934-14.602 0-3.304-1.132-5.726-2.988-7.742zM20.056 33.83h-0.112c-7.542 0-13.418-0.898-13.418-8.23 0-1.758 0.62-3.386 2.094-4.738 2.454-2.254 6.61-1.062 11.324-1.062 0.020 0 0.040 0 0.058 0 0.020 0 0.036 0 0.054 0 4.714 0 8.872-1.192 11.328 1.062 1.47 1.352 2.090 2.98 2.090 4.738 0 7.332-5.874 8.23-13.418 8.23zM13.642 22.618c-1.436 0-2.6 1.614-2.6 3.598 0 1.988 1.164 3.602 2.6 3.602 1.438 0 2.602-1.614 2.602-3.602 0-1.984-1.164-3.598-2.602-3.598z"></path>
</svg>
