<!-- Generated by IcoMoon.io -->
<svg version="1.1" xmlns="http://www.w3.org/2000/svg" width="40" height="40" viewBox="0 0 40 40">
<title>heart-outlined</title>
<path d="M34.38 8.312c-3.344-3.070-8.766-3.070-12.11 0l-2.27 2.082-2.272-2.082c-3.344-3.070-8.764-3.070-12.108 0-3.762 3.452-3.762 9.038 0 12.49l14.38 13.198 14.38-13.198c3.76-3.452 3.76-9.040 0-12.49zM32.248 18.75l-12.248 11.43-12.25-11.43c-1.234-1.134-1.712-2.614-1.712-4.188s0.276-2.866 1.512-3.998c1.090-1.002 2.556-1.554 4.126-1.554 1.568 0 3.034 0.952 4.124 1.956l4.2 3.65 4.198-3.652c1.092-1.004 2.556-1.956 4.126-1.956s3.036 0.552 4.126 1.554c1.236 1.132 1.51 2.424 1.51 3.998s-0.476 3.056-1.712 4.19z"></path>
</svg>
