<!-- Generated by IcoMoon.io -->
<svg version="1.1" xmlns="http://www.w3.org/2000/svg" width="40" height="40" viewBox="0 0 40 40">
<title>lab-flask</title>
<path d="M32.864 30c-4.090-10.214-8.864-12.906-8.864-18v-6h1c0.552 0 1-0.448 1-1v-2c0-0.552-0.448-1-1-1h-10c-0.552 0-1 0.448-1 1v2c0 0.552 0.448 1 1 1h1v6c0 5.094-4.774 7.786-8.864 18-1.302 3.25-4.646 8 12.864 8s14.166-4.75 12.864-8zM29.63 33.502c-1.404 0.42-4.198 0.898-9.63 0.898s-8.226-0.478-9.63-0.898c-0.498-0.148-0.692-0.726-0.516-1.256 0.44-1.34 1.27-3.656 2.822-6.242 3.792-6.318 7.726 0.994 11 0.994s2.376-3.122 3.648-0.994c1.548 2.588 2.382 4.902 2.822 6.242 0.176 0.53-0.018 1.106-0.516 1.256z"></path>
</svg>
