<!-- Generated by IcoMoon.io -->
<svg version="1.1" xmlns="http://www.w3.org/2000/svg" width="40" height="40" viewBox="0 0 40 40">
<title>lifebuoy</title>
<path d="M33.576 6.424c-7.498-7.498-19.654-7.498-27.15 0-7.5 7.5-7.5 19.656-0.004 27.152 7.5 7.5 19.656 7.5 27.156 0 7.496-7.498 7.496-19.654-0.002-27.152zM13.496 26.504c-3.594-3.594-3.594-9.418 0-13.010 3.59-3.592 9.418-3.592 13.012 0 3.594 3.594 3.59 9.418 0 13.010-3.594 3.594-9.418 3.594-13.012 0zM30.694 25.758c1.936-3.598 1.938-7.918 0-11.518l3.566-1.92c2.578 4.782 2.578 10.58 0.004 15.356l-3.57-1.918zM27.678 5.738l-1.922 3.568c-3.598-1.934-7.918-1.934-11.512 0l-1.922-3.566c4.78-2.576 10.574-2.576 15.356-0.002zM5.74 12.32l3.568 1.922c-1.936 3.596-1.936 7.914-0.002 11.512l-3.568 1.922c-2.576-4.778-2.574-10.574 0.002-15.356zM12.318 34.258l1.922-3.566c3.598 1.938 7.92 1.938 11.518 0l1.922 3.57c-4.784 2.574-10.58 2.574-15.362-0.004z"></path>
</svg>
