<!-- Generated by IcoMoon.io -->
<svg version="1.1" xmlns="http://www.w3.org/2000/svg" width="40" height="40" viewBox="0 0 40 40">
<title>light-bulb</title>
<path d="M14.372 38.344c1.578 1.020 3.402 1.71 5.628 1.656 2.222 0.054 4.050-0.636 5.628-1.656l-0.034-4.344h-11.188l-0.034 4.344zM25.394 32c0-8.714 9.26-11.696 8.566-20.376-0.436-5.476-4.146-11.62-13.96-11.62s-13.524 6.144-13.962 11.622c-0.694 8.678 8.568 11.66 8.568 20.374h10.788zM10 12c0.414-5.196 4.226-8 10-8 5.772 0 9.308 2.742 9.722 7.938 0.226 2.848-1.41 4.746-3.618 7.852-1.628 2.292-3.206 4.686-4.104 8.21h-4c-0.898-3.524-2.476-5.918-4.106-8.212-2.206-3.104-4.122-4.94-3.894-7.788z"></path>
</svg>
