<!-- Generated by IcoMoon.io -->
<svg version="1.1" xmlns="http://www.w3.org/2000/svg" width="40" height="40" viewBox="0 0 40 40">
<title>light-down</title>
<path d="M20 13.594c-3.55 0-6.4 2.852-6.4 6.402 0 3.546 2.85 6.398 6.4 6.398 3.548 0 6.398-2.852 6.398-6.398 0-3.55-2.85-6.402-6.398-6.402zM20 24.094c-2.266 0-4.102-1.832-4.102-4.098s1.836-4.102 4.102-4.102c2.264 0 4.1 1.836 4.1 4.102-0.002 2.266-1.838 4.098-4.1 4.098zM30 10c-0.624-0.624-1.766-0.496-2.546 0.284-0.78 0.782-0.906 1.918-0.282 2.544s1.764 0.5 2.546-0.282c0.78-0.78 0.906-1.922 0.282-2.546zM10.284 27.458c-0.782 0.78-0.908 1.918-0.284 2.542s1.764 0.5 2.546-0.282c0.782-0.782 0.908-1.922 0.284-2.546s-1.766-0.496-2.546 0.286zM10 10c-0.624 0.624-0.498 1.766 0.282 2.546 0.782 0.782 1.922 0.906 2.546 0.282s0.498-1.766-0.284-2.546c-0.778-0.778-1.92-0.906-2.544-0.282zM27.454 29.714c0.78 0.782 1.92 0.91 2.546 0.286s0.498-1.766-0.284-2.548c-0.782-0.782-1.92-0.906-2.546-0.282s-0.496 1.764 0.284 2.544zM20 9.996c0.882 0 1.6-0.894 1.6-2-0.002-1.106-0.718-1.996-1.6-1.996-0.884 0-1.602 0.89-1.602 1.996s0.716 2 1.602 2zM20 34c0.882 0 1.6-0.894 1.6-2s-0.716-1.996-1.598-1.996c-0.884 0-1.602 0.89-1.602 1.996-0.002 1.106 0.714 2 1.6 2zM10 20c0-0.882-0.9-1.6-2.006-1.6s-1.994 0.718-1.994 1.6c0 0.884 0.888 1.6 1.994 1.6s2.006-0.716 2.006-1.6zM34 20c0-0.882-0.896-1.6-2.002-1.6s-1.998 0.718-1.998 1.6c0 0.884 0.892 1.6 1.998 1.6s2.002-0.716 2.002-1.6z"></path>
</svg>
