<!-- Generated by IcoMoon.io -->
<svg version="1.1" xmlns="http://www.w3.org/2000/svg" width="40" height="40" viewBox="0 0 40 40">
<title>light-up</title>
<path d="M38 18.398c-0.364 0-1.598 0-1.96 0-1.106 0-2 0.718-2 1.602 0 0.882 0.894 1.598 2 1.598 0.364 0 1.598 0 1.96 0 1.104 0 2-0.714 2-1.598 0-0.882-0.898-1.602-2-1.602zM20 9c-6.102 0-11 4.898-11 11s4.898 11 11 11c6.1 0 11-4.898 11-11s-4.902-11-11-11zM20 28c-4.422 0-8-3.582-8-8 0-4.422 3.578-8 8-8 4.418 0 8 3.578 8 8 0 4.418-3.582 8-8 8zM6 20c0-0.882-0.898-1.602-2-1.602-0.37 0-1.632 0-2 0-1.106 0-2 0.718-2 1.602 0 0.882 0.894 1.598 2 1.598 0.368 0 1.63 0 2 0 1.102 0 2-0.716 2-1.598zM20 6c0.882 0 1.598-0.894 1.598-2 0-0.368 0-1.632 0-2 0-1.106-0.716-2-1.598-2-0.884 0-1.602 0.894-1.602 2 0 0.368 0 1.632 0 2 0 1.106 0.718 2 1.602 2zM20 34c-0.884 0-1.602 0.894-1.602 2 0 0.368 0 1.632 0 2 0 1.106 0.718 2 1.602 2 0.882 0 1.598-0.894 1.598-2 0-0.368 0-1.632 0-2 0-1.106-0.716-2-1.598-2zM34.73 7.532c0.782-0.782 0.908-1.922 0.284-2.546s-1.766-0.496-2.544 0.286c-0.216 0.214-1.186 1.184-1.4 1.398-0.782 0.782-0.908 1.922-0.284 2.546s1.766 0.496 2.546-0.286c0.214-0.216 1.182-1.184 1.398-1.398zM6.668 31.066c-0.216 0.218-1.186 1.188-1.4 1.402-0.782 0.782-0.908 1.918-0.284 2.542s1.766 0.5 2.544-0.282c0.216-0.214 1.186-1.184 1.4-1.398 0.782-0.782 0.908-1.922 0.284-2.548s-1.766-0.494-2.544 0.284zM7.53 5.27c-0.78-0.782-1.922-0.91-2.546-0.286s-0.496 1.766 0.282 2.548c0.216 0.214 1.186 1.184 1.4 1.398 0.782 0.782 1.92 0.91 2.544 0.286s0.498-1.766-0.282-2.546c-0.214-0.216-1.182-1.186-1.398-1.4zM31.068 33.332c0.216 0.214 1.186 1.184 1.4 1.398 0.782 0.782 1.92 0.906 2.544 0.286 0.624-0.624 0.498-1.766-0.284-2.546-0.214-0.214-1.184-1.184-1.398-1.398-0.782-0.782-1.922-0.91-2.548-0.286s-0.496 1.764 0.286 2.546z"></path>
</svg>
