<!-- Generated by IcoMoon.io -->
<svg version="1.1" xmlns="http://www.w3.org/2000/svg" width="40" height="40" viewBox="0 0 40 40">
<title>location</title>
<path d="M38.734 36.204l-2.734-8.204h-3l1.666 8h-29.332l1.666-8h-3l-2.736 8.204c-0.694 2.088 0.536 3.796 2.736 3.796h32c2.2 0 3.43-1.708 2.734-3.796zM30 10c0-5.522-4.476-10-10-10s-10 4.478-10 10c0 9.55 10 20 10 20s10-10.45 10-20zM14.6 10.12c0-2.982 2.416-5.398 5.4-5.398s5.4 2.416 5.4 5.398c0 2.984-2.418 5.4-5.4 5.4s-5.4-2.418-5.4-5.4z"></path>
</svg>
