<!-- Generated by IcoMoon.io -->
<svg version="1.1" xmlns="http://www.w3.org/2000/svg" width="40" height="40" viewBox="0 0 40 40">
<title>mail</title>
<path d="M3.148 10.572c0.976 0.524 14.496 7.788 15 8.058s1.156 0.398 1.812 0.398c0.656 0 1.308-0.128 1.812-0.398s14.024-7.534 15-8.058c0.978-0.526 1.902-2.572 0.108-2.572h-33.838c-1.794 0-0.87 2.046 0.106 2.572zM37.226 14.978c-1.11 0.578-14.774 7.698-15.454 8.054s-1.156 0.398-1.812 0.398-1.132-0.042-1.812-0.398-14.266-7.478-15.376-8.056c-0.78-0.408-0.772 0.070-0.772 0.438s0 14.586 0 14.586c0 0.84 1.132 2 2 2h32c0.868 0 2-1.16 2-2 0 0 0-14.216 0-14.584s0.008-0.846-0.774-0.438z"></path>
</svg>
