<!-- Generated by IcoMoon.io -->
<svg version="1.1" xmlns="http://www.w3.org/2000/svg" width="40" height="40" viewBox="0 0 40 40">
<title>megaphone1</title>
<path d="M34.446 14.060c-3.168-7.372-8.264-12.98-10.842-11.934-4.378 1.782 2.608 10.328-18.894 19.066-1.858 0.758-2.328 3.776-1.55 5.584 0.776 1.804 3.316 3.602 5.174 2.848 0.322-0.132 1.502-0.512 1.502-0.512 1.326 1.782 2.714 0.726 3.208 1.856 0.592 1.36 1.878 4.316 2.316 5.32s1.43 1.934 2.15 1.66c0.718-0.274 3.164-1.204 4.1-1.558 0.936-0.356 1.158-1.192 0.872-1.848-0.308-0.71-1.572-0.918-1.934-1.746-0.36-0.824-1.538-3.476-1.876-4.312-0.46-1.136 0.518-2.062 1.94-2.208 9.788-1.024 11.618 5.024 14.95 3.668 2.574-1.050 2.050-8.518-1.116-15.884zM33.344 26.012c-0.574 0.23-4.426-2.804-6.886-8.534-2.462-5.726-2.152-10.96-1.58-11.194 0.572-0.23 4.33 3.434 6.79 9.16 2.462 5.726 2.248 10.334 1.676 10.568z"></path>
</svg>
