<!-- Generated by IcoMoon.io -->
<svg version="1.1" xmlns="http://www.w3.org/2000/svg" width="40" height="40" viewBox="0 0 40 40">
<title>new-message</title>
<path d="M36.348 3.652c-2.204-2.204-4.164-1.554-4.164-1.554l-17.278 17.264-2.906 8.638 8.634-2.908 17.268-17.276c0 0 0.648-1.96-1.554-4.164zM21.21 23.21l-0.942 0.94-2.946 1c-0.208-0.48-0.468-0.954-0.996-1.48-0.528-0.528-1-0.788-1.48-0.996l1-2.946 0.942-0.94c0 0 1.552-0.178 3.074 1.346 1.524 1.522 1.348 3.076 1.348 3.076zM32 34h-26v-26h10l4-4h-14c-2.2 0-4 1.8-4 4v26c0 2.2 1.8 4 4 4h26c2.2 0 4-1.8 4-4v-14l-4 4v10z"></path>
</svg>
