<!-- Generated by IcoMoon.io -->
<svg version="1.1" xmlns="http://www.w3.org/2000/svg" width="27" height="32" viewBox="0 0 27 32">
<title>notebook</title>
<path d="M23.5 32c0.869 0 1.5-0.631 1.5-1.5v-28c0-0.869-0.631-1.5-1.5-1.5h-20c-0.869 0-1.5 0.631-1.5 1.5v1.167c0 0.276 0.224 0.5 0.5 0.5s0.5-0.224 0.5-0.5v-1.167c0-0.313 0.187-0.5 0.5-0.5h4.562v29h-4.562c-0.313 0-0.5-0.187-0.5-0.5v-0.917c0-0.276-0.224-0.5-0.5-0.5s-0.5 0.224-0.5 0.5v0.917c0 0.869 0.631 1.5 1.5 1.5h20zM9 2h14.5c0.313 0 0.5 0.187 0.5 0.5v28c0 0.313-0.187 0.5-0.5 0.5h-14.5v-29zM27 29.5v-26c0-0.276-0.224-0.5-0.5-0.5s-0.5 0.224-0.5 0.5v26c0 0.276 0.224 0.5 0.5 0.5s0.5-0.224 0.5-0.5zM0.5 11h4c0.276 0 0.5-0.224 0.5-0.5s-0.224-0.5-0.5-0.5h-4c-0.276 0-0.5 0.224-0.5 0.5s0.224 0.5 0.5 0.5zM0.5 7h4c0.276 0 0.5-0.224 0.5-0.5s-0.224-0.5-0.5-0.5h-4c-0.276 0-0.5 0.224-0.5 0.5s0.224 0.5 0.5 0.5zM0.5 15h4c0.276 0 0.5-0.224 0.5-0.5s-0.224-0.5-0.5-0.5h-4c-0.276 0-0.5 0.224-0.5 0.5s0.224 0.5 0.5 0.5zM0.5 23h4c0.276 0 0.5-0.224 0.5-0.5s-0.224-0.5-0.5-0.5h-4c-0.276 0-0.5 0.224-0.5 0.5s0.224 0.5 0.5 0.5zM0.5 19h4c0.276 0 0.5-0.224 0.5-0.5s-0.224-0.5-0.5-0.5h-4c-0.276 0-0.5 0.224-0.5 0.5s0.224 0.5 0.5 0.5zM0.5 27h4c0.276 0 0.5-0.224 0.5-0.5s-0.224-0.5-0.5-0.5h-4c-0.276 0-0.5 0.224-0.5 0.5s0.224 0.5 0.5 0.5z"></path>
</svg>
