<!-- Generated by IcoMoon.io -->
<svg version="1.1" xmlns="http://www.w3.org/2000/svg" width="40" height="40" viewBox="0 0 40 40">
<title>paper-plane</title>
<path d="M37.28 5.268c-0.688 0.242-34.642 12.208-35.312 12.444-0.568 0.2-0.694 0.69-0.020 0.958 0.802 0.322 7.592 3.042 7.592 3.042v0l4.5 1.802c0 0 21.676-15.916 21.968-16.132 0.296-0.216 0.636 0.19 0.422 0.422-0.214 0.234-15.742 17.026-15.742 17.026v0.004l-0.904 1.006 1.198 0.644c0 0 9.3 5.008 9.964 5.364 0.582 0.312 1.336 0.054 1.504-0.668 0.198-0.852 5.69-24.522 5.812-25.050 0.158-0.686-0.296-1.104-0.982-0.862zM14 34.324c0 0.492 0.278 0.63 0.662 0.282 0.502-0.458 5.7-5.122 5.7-5.122l-6.362-3.288v8.128z"></path>
</svg>
