<!-- Generated by IcoMoon.io -->
<svg version="1.1" xmlns="http://www.w3.org/2000/svg" width="40" height="40" viewBox="0 0 40 40">
<title>pin</title>
<path d="M9.548 30.574l-4.21 6.5 0.448 2.126 2.12-0.454 4.208-6.496c-0.448-0.24-0.892-0.496-1.322-0.78-0.436-0.282-0.852-0.584-1.244-0.896zM27.372 28.304c0.028-0.058 0.046-0.122 0.072-0.184 0.106-0.234 0.2-0.468 0.276-0.714 0.012-0.044 0.018-0.088 0.032-0.128 0.078-0.272 0.144-0.54 0.196-0.816 0-0.014 0-0.024 0-0.042 0.39-2.338-0.29-4.946-1.846-7.302l2.22-3.428c2.558 0.326 4.77-0.318 5.834-1.964 1.846-2.846-0.4-7.584-5.010-10.586-4.614-3.004-9.846-3.13-11.688-0.288-1.068 1.648-0.756 3.934 0.586 6.146l-2.224 3.428c-2.778-0.466-5.432-0.032-7.406 1.28-0.012 0.004-0.026 0.008-0.034 0.016-0.23 0.156-0.454 0.328-0.664 0.508-0.034 0.028-0.074 0.054-0.102 0.082-0.196 0.168-0.372 0.356-0.542 0.544-0.040 0.048-0.096 0.090-0.134 0.14-0.212 0.242-0.408 0.498-0.58 0.77-2.768 4.266-0.406 10.722 5.266 14.418 5.676 3.696 12.52 3.228 15.282-1.038 0.174-0.27 0.334-0.552 0.466-0.842zM25.742 8.388c-1.774-1.154-2.64-2.974-1.93-4.072 0.708-1.094 2.722-1.044 4.492 0.11 1.778 1.154 2.636 2.978 1.93 4.072s-2.716 1.044-4.492-0.11z"></path>
</svg>
