<!-- Generated by IcoMoon.io -->
<svg version="1.1" xmlns="http://www.w3.org/2000/svg" width="40" height="40" viewBox="0 0 40 40">
<title>signal</title>
<path d="M20 28c-2.188 0-3.962 1.788-3.962 4 0 2.208 1.774 4 3.962 4s3.96-1.792 3.96-4c0-2.21-1.772-4-3.96-4zM11.6 23.516l2.8 2.828c3.092-3.124 8.108-3.124 11.202 0l2.798-2.828c-4.638-4.686-12.162-4.686-16.8 0zM6 17.856l2.8 2.828c6.184-6.246 16.212-6.246 22.398 0l2.802-2.828c-7.73-7.808-20.27-7.808-28 0zM0.398 12.2l2.8 2.828c9.278-9.372 24.322-9.372 33.602 0l2.8-2.828c-10.824-10.934-28.376-10.934-39.202 0z"></path>
</svg>
