<!-- Generated by IcoMoon.io -->
<svg version="1.1" xmlns="http://www.w3.org/2000/svg" width="25" height="32" viewBox="0 0 25 32">
<title>tablet</title>
<path d="M1.5 32h22c0.827 0 1.5-0.673 1.5-1.5v-29c0-0.827-0.673-1.5-1.5-1.5h-22c-0.827 0-1.5 0.673-1.5 1.5v29c0 0.827 0.673 1.5 1.5 1.5zM1 1.5c0-0.276 0.224-0.5 0.5-0.5h22c0.276 0 0.5 0.224 0.5 0.5v29c0 0.276-0.224 0.5-0.5 0.5h-22c-0.276 0-0.5-0.224-0.5-0.5v-29zM3.5 27h18c0.276 0 0.5-0.224 0.5-0.5v-23c0-0.276-0.224-0.5-0.5-0.5h-18c-0.276 0-0.5 0.224-0.5 0.5v23c0 0.276 0.224 0.5 0.5 0.5zM4 4h17v22h-17v-22zM12 29c0 0.552 0.448 1 1 1s1-0.448 1-1c0-0.552-0.448-1-1-1s-1 0.448-1 1z"></path>
</svg>
