<!-- Generated by IcoMoon.io -->
<svg version="1.1" xmlns="http://www.w3.org/2000/svg" width="40" height="40" viewBox="0 0 40 40">
<title>thumbs-up</title>
<path d="M27.296 14.724c-0.266-0.71 7.078-7.268 2.796-12.582-1.002-1.242-4.402 5.95-9.23 9.206-2.664 1.796-8.862 5.62-8.862 7.734v13.684c0 2.542 9.828 5.234 17.296 5.234 2.738 0 6.704-17.152 6.704-19.876 0-2.736-8.442-2.688-8.704-3.4zM10 14.914c-1.316 0-6 0.8-6 6.246v9.696c0 5.442 4.684 6.042 6 6.042 1.314 0-2-1.144-2-4.52v-12.746c0-3.536 3.314-4.718 2-4.718z"></path>
</svg>
