<!-- Generated by IcoMoon.io -->
<svg version="1.1" xmlns="http://www.w3.org/2000/svg" width="40" height="40" viewBox="0 0 40 40">
<title>tools1</title>
<path d="M6.27 13.78c1.866-1.45 3.414-0.45 5.48 1.942 0.232 0.27 0.544-0.046 0.722-0.2 0.176-0.156 2.902-2.61 3.036-2.722 0.132-0.118 0.292-0.338 0.082-0.584-0.214-0.246-0.988-1.25-1.486-1.902-3.616-4.73 9.892-7.938 7.818-7.988-1.056-0.028-5.292-0.078-5.926-0.008-2.566 0.27-5.788 2.668-7.41 3.786-2.122 1.452-2.914 2.304-3.044 2.422-0.6 0.524-0.096 1.734-1.184 2.688-1.15 1.006-1.868 0.244-2.534 0.828-0.33 0.292-1.254 0.984-1.518 1.214-0.266 0.234-0.314 0.628-0.042 0.942 0 0 2.528 2.792 2.74 3.040 0.21 0.244 0.782 0.456 1.134 0.142 0.354-0.312 1.264-1.106 1.416-1.246 0.156-0.132-0.1-1.722 0.716-2.354zM17.686 14.814c-0.24-0.278-0.538-0.286-0.794-0.058l-2.868 2.504c-0.226 0.2-0.258 0.566-0.054 0.8l16.588 18.878c0.388 0.446 1.060 0.492 1.502 0.106l1.94-1.626c0.444-0.39 0.49-1.066 0.104-1.516l-16.418-19.088zM39.804 6.78c-0.148-0.988-0.66-0.782-0.926-0.364-0.266 0.422-1.442 2.204-1.926 3.012-0.48 0.8-1.664 2.382-3.868 0.82-2.296-1.622-1.498-2.754-1.098-3.516 0.402-0.766 1.636-2.914 1.814-3.18 0.178-0.27-0.030-1.054-0.742-0.726-0.714 0.328-5.046 2.050-5.646 4.52-0.614 2.512 0.514 4.758-1.7 6.988l-2.686 2.8 2.698 3.132 3.308-3.14c0.788-0.792 2.472-1.562 3.996-1.214 3.266 0.738 5.048-0.488 6.122-2.516 0.964-1.812 0.804-5.628 0.654-6.616zM5.478 34.106c-0.416 0.418-0.416 1.098 0 1.516l1.902 1.86c0.416 0.418 1.076 0.242 1.492-0.176l9.814-9.648-3.006-3.428-10.202 9.876z"></path>
</svg>
