<!-- Generated by IcoMoon.io -->
<svg version="1.1" xmlns="http://www.w3.org/2000/svg" width="40" height="40" viewBox="0 0 40 40">
<title>water</title>
<path d="M19.764 18.186c-1.022 8.23-6.242 9.694-6.242 15.416 0 3.532 2.966 6.398 6.478 6.398s6.476-2.868 6.476-6.398c0-5.722-5.22-7.186-6.242-15.416-0.032-0.246-0.438-0.246-0.47 0zM7.766 0.186c-1.022 8.23-6.242 9.692-6.242 15.416 0 3.53 2.964 6.398 6.476 6.398s6.476-2.868 6.476-6.398c0-5.722-5.22-7.186-6.242-15.416-0.030-0.246-0.438-0.246-0.468 0zM31.766 0.186c-1.022 8.23-6.242 9.694-6.242 15.416 0 3.53 2.964 6.398 6.476 6.398s6.476-2.868 6.476-6.398c0-5.722-5.22-7.186-6.242-15.416-0.032-0.246-0.438-0.246-0.468 0z"></path>
</svg>
